<svg xmlns="http://www.w3.org/2000/svg" viewBox="0 0 24 24" fill="currentColor"><path d="M1.175 12.225c-.051 0-.094.046-.101.1l-.233 2.154.233 2.105c.007.058.05.098.101.098.05 0 .09-.04.099-.098l.255-2.105-.27-2.154c-.009-.06-.052-.1-.099-.1m-.899-1.097c-.053 0-.093.045-.101.098l-.225 3.153.225 3.13c.008.053.048.098.101.098.052 0 .092-.045.1-.098l.253-3.13-.253-3.153c-.008-.053-.048-.098-.1-.098m1.91-1.095c-.054 0-.098.047-.106.1l-.239 4.246.239 4.203c.008.054.052.101.106.101.052 0 .097-.047.105-.101l.271-4.203-.271-4.246c-.008-.053-.053-.1-.105-.1m.956-.101c-.054 0-.098.045-.105.098l-.257 4.35.257 4.307c.007.053.051.098.105.098.054 0 .098-.045.106-.098l.29-4.307-.29-4.35c-.008-.053-.052-.098-.106-.098m.956-.053c-.054 0-.098.045-.106.098l-.272 4.403.272 4.338c.008.053.052.098.106.098.054 0 .098-.045.106-.098l.302-4.338-.302-4.403c-.008-.053-.052-.098-.106-.098m1.018.009c-.054 0-.098.045-.106.098l-.285 4.394.285 4.329c.008.053.052.098.106.098.054 0 .098-.045.106-.098l.319-4.329-.319-4.394c-.008-.053-.052-.098-.106-.098m1.018.009c-.054 0-.098.045-.106.098l-.302 4.385.302 4.329c.008.053.052.098.106.098.054 0 .098-.045.106-.098l.336-4.329-.336-4.385c-.008-.053-.052-.098-.106-.098m1.017-.044c-.054 0-.098.045-.106.098l-.315 4.429.315 4.294c.008.053.052.098.106.098.054 0 .098-.045.106-.098l.35-4.294-.35-4.429c-.008-.053-.052-.098-.106-.098m1.017.062c-.054 0-.098.045-.106.098l-.332 4.367.332 4.229c.008.053.052.098.106.098.054 0 .098-.045.106-.098l.367-4.229-.367-4.367c-.008-.053-.052-.098-.106-.098m1.018-.009c-.054 0-.098.045-.106.098l-.347 4.376.347 4.229c.008.053.052.098.106.098.054 0 .098-.045.106-.098l.384-4.229-.384-4.376c-.008-.053-.052-.098-.106-.098m1.017.044c-.054 0-.098.045-.106.098l-.364 4.332.364 4.229c.008.053.052.098.106.098.054 0 .098-.045.106-.098l.399-4.229-.399-4.332c-.008-.053-.052-.098-.106-.098m1.017-.053c-.054 0-.098.045-.106.098l-.379 4.385.379 4.211c.008.053.052.098.106.098.054 0 .098-.045.106-.098l.415-4.211-.415-4.385c-.008-.053-.052-.098-.106-.098m1.017.062c-.054 0-.098.045-.106.098l-.396 4.323.396 4.211c.008.053.052.098.106.098.054 0 .098-.045.106-.098l.432-4.211-.432-4.323c-.008-.053-.052-.098-.106-.098m1.018-.044c-.054 0-.098.045-.106.098l-.411 4.367.411 4.229c.008.053.052.098.106.098.054 0 .098-.045.106-.098l.449-4.229-.449-4.367c-.008-.053-.052-.098-.106-.098m1.017.009c-.054 0-.098.045-.106.098l-.428 4.358.428 4.219c.008.053.052.098.106.098.054 0 .098-.045.106-.098l.466-4.219-.466-4.358c-.008-.053-.052-.098-.106-.098m1.017-.062c-.054 0-.098.045-.106.098l-.445 4.411.445 4.219c.008.053.052.098.106.098.054 0 .098-.045.106-.098l.483-4.219-.483-4.411c-.008-.053-.052-.098-.106-.098"/></svg>